# File created by Blade
# Date/Time:  Wed Jan 21 17:05:57 2015
# Frame Rate: 120.000 fps
#------------------------------------------------------
:FULLY-SPECIFIED
:DEGREES
603
root 19.990849 35.655883 -22.689752 -172.400752 2.500041 -178.511739
Spine -18.280420 -0.269273 0.518820
Head 8.951051 0.497217 2.294282
LeftShoulder -14.746608 -31.736045 21.821352
LeftArm -1.954378 -1.119195 -6.492220
LeftForeArm 11.699612 -0.000000 -3.560651
LeftHand -7.253690 0.000000 0.516198
LeftHandThumb1 -26.253704 0.000000 33.147579
RightShoulder -12.772537 -3.336293 -9.694338
RightArm 1.570672 42.379697 10.283525
RightForeArm -36.954954 -0.000000 4.763160
RightHand -6.119917 -0.000000 2.416917
RightHandThumb1 -24.326973 -0.000000 -32.862282
LeftUpLeg 1.323433 14.905549 3.987359
LeftLeg -5.804024 -0.000000 0.000000
LeftFoot -18.823042 25.251571 -17.257986
LeftToeBase 23.900502 -0.000000 -0.000000
RightUpLeg -1.319232 -12.440509 0.536548
RightLeg -3.324614 -0.000000 0.000000
RightFoot -19.483021 -27.693819 17.465567
RightToeBase 22.677062 -0.000000 -0.000000
604
root 19.994172 35.652040 -22.716805 -172.398530 2.480341 -178.513209
Spine -18.312526 -0.239720 0.531835
Head 8.798766 0.491494 2.217228
LeftShoulder -14.754402 -31.702641 21.770928
LeftArm -1.937210 -1.088324 -6.547964
LeftForeArm 11.664274 -0.000000 -3.541116
LeftHand -7.362698 -0.000000 0.651691
LeftHandThumb1 -26.253704 0.000000 33.147579
RightShoulder -12.772315 -3.399270 -9.706393
RightArm 1.613706 42.426195 10.315896
RightForeArm -37.023658 -0.000000 4.827230
RightHand -6.155157 -0.000000 2.414925
RightHandThumb1 -24.326973 -0.000000 -32.862282
LeftUpLeg 1.363284 14.919565 3.997343
LeftLeg -5.806681 -0.000000 0.000000
LeftFoot -18.847647 25.245438 -17.244961
LeftToeBase 23.892496 -0.000000 -0.000000
RightUpLeg -1.269844 -12.481291 0.537838
RightLeg -3.338624 -0.000000 0.000000
RightFoot -19.523566 -27.694428 17.445700
RightToeBase 22.700836 -0.000000 -0.000000
605
root 19.997530 35.647385 -22.744196 -172.404455 2.461620 -178.509062
Spine -18.347754 -0.219678 0.556006
Head 8.667328 0.503307 2.157685
LeftShoulder -14.759514 -31.619196 21.724121
LeftArm -1.920262 -1.068152 -6.625089
LeftForeArm 11.597143 -0.000000 -3.511732
LeftHand -7.313278 -0.000000 0.522259
LeftHandThumb1 -26.253704 0.000000 33.147579
RightShoulder -12.743613 -3.496802 -9.698747
RightArm 1.683196 42.391141 10.312438
RightForeArm -36.863495 -0.000000 4.811031
RightHand -6.117451 0.000000 2.399683
RightHandThumb1 -24.326973 -0.000000 -32.862282
LeftUpLeg 1.426570 14.932458 4.015341
LeftLeg -5.836519 -0.000000 0.000000
LeftFoot -18.887006 25.232756 -17.248244
LeftToeBase 23.932556 -0.000000 -0.000000
RightUpLeg -1.210012 -12.484266 0.543635
RightLeg -3.355104 -0.000000 0.000000
RightFoot -19.580942 -27.744496 17.445730
RightToeBase 22.682971 -0.000000 -0.000000
606
root 19.998563 35.643661 -22.770370 -172.401992 2.432630 -178.499616
Spine -18.368613 -0.186746 0.602815
Head 8.457526 0.497808 2.080770
LeftShoulder -14.793540 -31.607900 21.669480
LeftArm -1.871050 -1.031604 -6.699085
LeftForeArm 11.528778 -0.000000 -3.517301
LeftHand -7.313993 -0.000000 0.593516
LeftHandThumb1 -26.253704 0.000000 33.147579
RightShoulder -12.814973 -3.534632 -9.727253
RightArm 1.889029 42.385284 10.417893
RightForeArm -36.780078 -0.000000 4.796320
RightHand -6.180978 0.000000 2.377419
RightHandThumb1 -24.326973 -0.000000 -32.862282
LeftUpLeg 1.470286 14.964303 4.031516
LeftLeg -5.854648 -0.000000 0.000000
LeftFoot -18.916588 25.202908 -17.243108
LeftToeBase 23.936836 -0.000000 -0.000000
RightUpLeg -1.162455 -12.468387 0.549087
RightLeg -3.361400 -0.000000 0.000000
RightFoot -19.632340 -27.806496 17.450140
RightToeBase 22.728813 -0.000000 -0.000000
607
root 19.999450 35.639384 -22.794817 -172.387382 2.392479 -178.501720
Spine -18.421919 -0.191213 0.642480
Head 8.361492 0.525492 1.949504
LeftShoulder -14.779776 -31.603244 21.607328
LeftArm -1.889582 -1.068360 -6.729020
LeftForeArm 11.553321 -0.000000 -3.491548
LeftHand -7.347912 0.000000 0.511511
LeftHandThumb1 -26.253704 0.000000 33.147579
RightShoulder -12.801815 -3.568861 -9.774677
RightArm 2.009963 42.375156 10.499737
RightForeArm -36.803238 -0.000000 4.787562
RightHand -6.205299 -0.000000 2.287712
RightHandThumb1 -24.326973 -0.000000 -32.862282
LeftUpLeg 1.506508 14.956012 4.030748
LeftLeg -5.898062 -0.000000 0.000000
LeftFoot -18.960278 25.220751 -17.269681
LeftToeBase 23.987470 -0.000000 -0.000000
RightUpLeg -1.135051 -12.477067 0.542983
RightLeg -3.349924 -0.000000 0.000000
RightFoot -19.689019 -27.818912 17.444573
RightToeBase 22.699538 -0.000000 -0.000000
608
root 20.002915 35.634696 -22.817887 -172.370060 2.330709 -178.496345
Spine -18.474429 -0.222487 0.685010
Head 8.244694 0.548354 1.862460
LeftShoulder -14.773018 -31.592299 21.562887
LeftArm -1.903623 -1.075384 -6.769518
LeftForeArm 11.490025 -0.000000 -3.475713
LeftHand -7.384550 -0.000000 0.465254
LeftHandThumb1 -26.253704 0.000000 33.147579
RightShoulder -12.765602 -3.653962 -9.785080
RightArm 2.102239 42.428535 10.531710
RightForeArm -36.711896 -0.000000 4.781637
RightHand -6.165514 -0.000000 2.290379
RightHandThumb1 -24.326973 -0.000000 -32.862282
LeftUpLeg 1.506927 15.020340 4.048522
LeftLeg -5.883863 -0.000000 0.000000
LeftFoot -18.974852 25.121630 -17.206573
LeftToeBase 24.052924 -0.000000 -0.000000
RightUpLeg -1.110245 -12.532794 0.557035
RightLeg -3.344545 -0.000000 0.000000
RightFoot -19.738303 -27.829930 17.423481
RightToeBase 22.676688 -0.000000 -0.000000
609
root 20.002874 35.629760 -22.842303 -172.392263 2.283485 -178.490549
Spine -18.473941 -0.251595 0.751730
Head 8.121288 0.601779 1.743065
LeftShoulder -14.786723 -31.576865 21.502682
LeftArm -1.920857 -1.100718 -6.803947
LeftForeArm 11.479502 -0.000000 -3.454495
LeftHand -7.372049 0.000000 0.409289
LeftHandThumb1 -26.253704 0.000000 33.147579
RightShoulder -12.710572 -3.669955 -9.823972
RightArm 2.178940 42.332739 10.556461
RightForeArm -36.661374 -0.000000 4.817355
RightHand -6.182346 -0.000000 2.307721
RightHandThumb1 -24.326973 -0.000000 -32.862282
LeftUpLeg 1.591880 14.955398 4.079210
LeftLeg -5.933114 -0.000000 0.000000
LeftFoot -18.990142 25.132365 -17.181267
LeftToeBase 24.057127 -0.000000 -0.000000
RightUpLeg -1.045562 -12.505686 0.549059
RightLeg -3.333893 -0.000000 0.000000
RightFoot -19.809499 -27.908138 17.422591
RightToeBase 22.727693 -0.000000 -0.000000
610
root 20.002599 35.624950 -22.866007 -172.400095 2.245070 -178.504670
Spine -18.497316 -0.270594 0.777537
Head 8.018228 0.660023 1.674695
LeftShoulder -14.824353 -31.529701 21.459800
LeftArm -1.872988 -1.171201 -6.867826
LeftForeArm 11.512820 -0.000000 -3.450135
LeftHand -7.344276 -0.000000 0.381747
LeftHandThumb1 -26.253704 0.000000 33.147579
RightShoulder -12.668081 -3.731067 -9.841816
RightArm 2.290183 42.331085 10.612451
RightForeArm -36.621522 0.000000 4.838444
RightHand -6.245318 -0.000000 2.322287
RightHandThumb1 -24.326973 -0.000000 -32.862282
LeftUpLeg 1.640384 14.986856 4.075845
LeftLeg -5.953873 -0.000000 0.000000
LeftFoot -18.998441 25.080273 -17.152665
LeftToeBase 24.079758 -0.000000 -0.000000
RightUpLeg -0.990472 -12.496408 0.524329
RightLeg -3.338429 -0.000000 0.000000
RightFoot -19.867937 -27.961998 17.442360
RightToeBase 22.590671 -0.000000 -0.000000
611
root 20.003014 35.620553 -22.890179 -172.400920 2.207587 -178.509142
Spine -18.522362 -0.243813 0.803711
Head 7.891913 0.636416 1.584376
LeftShoulder -14.836496 -31.481776 21.414458
LeftArm -1.801887 -1.244312 -6.960143
LeftForeArm 11.476863 0.000000 -3.480094
LeftHand -7.426266 0.000000 0.506422
LeftHandThumb1 -26.253704 0.000000 33.147579
RightShoulder -12.703316 -3.823134 -9.859469
RightArm 2.465080 42.385724 10.716408
RightForeArm -36.664303 -0.000000 4.840604
RightHand -6.185201 -0.000000 2.341575
RightHandThumb1 -24.326973 -0.000000 -32.862282
LeftUpLeg 1.683161 15.008625 4.082860
LeftLeg -5.971916 -0.000000 0.000000
LeftFoot -19.007434 25.033993 -17.130168
LeftToeBase 24.056179 -0.000000 -0.000000
RightUpLeg -0.936867 -12.520691 0.514120
RightLeg -3.355057 -0.000000 0.000000
RightFoot -19.890143 -27.985015 17.370562
RightToeBase 22.747724 -0.000000 -0.000000
